<svg width="446" height="128" viewBox="0 0 446 128" fill="none" xmlns="http://www.w3.org/2000/svg">
<rect x="27" y="27" width="74" height="73" fill="white"/>
<path d="M196.09 60.55C198.658 61.8322 200.808 63.8198 202.286 66.2799C203.765 68.7399 204.512 71.5705 204.44 74.44C204.493 76.7238 204.056 78.9924 203.159 81.0933C202.262 83.1942 200.926 85.0787 199.24 86.62C195.806 89.8322 191.251 91.5729 186.55 91.47H161.01V31.84H184.69C189.284 31.7285 193.737 33.4273 197.09 36.57C198.728 38.0612 200.026 39.886 200.899 41.9215C201.772 43.9569 202.199 46.1558 202.15 48.37C202.235 50.7443 201.724 53.1021 200.666 55.2292C199.608 57.3563 198.035 59.1853 196.09 60.55V60.55ZM184.67 41H170.79V56.72H184.67C185.685 56.7408 186.694 56.5507 187.632 56.1617C188.57 55.7727 189.417 55.1932 190.12 54.46C191.546 52.9522 192.341 50.9555 192.341 48.88C192.341 46.8045 191.546 44.8078 190.12 43.3C189.421 42.5595 188.575 41.9726 187.637 41.5767C186.699 41.1807 185.688 40.9843 184.67 41V41ZM186.55 82.23C187.624 82.2489 188.69 82.0434 189.68 81.6267C190.67 81.21 191.563 80.5912 192.3 79.81C193.804 78.2036 194.64 76.0854 194.64 73.885C194.64 71.6846 193.804 69.5664 192.3 67.96C191.563 67.1788 190.67 66.56 189.68 66.1433C188.69 65.7266 187.624 65.5211 186.55 65.54H170.79V82.27L186.55 82.23Z" fill="white"/>
<path d="M249.92 48.88H259.12V91.47H249.92V85.34C246.46 90.1733 241.493 92.5867 235.02 92.58C232.201 92.6116 229.408 92.0471 226.823 90.9234C224.238 89.7998 221.92 88.1424 220.02 86.06C217.986 83.9547 216.39 81.4676 215.322 78.742C214.254 76.0165 213.737 73.1065 213.8 70.18C213.726 67.2455 214.238 64.3257 215.304 61.5907C216.37 58.8558 217.97 56.3604 220.01 54.25C221.913 52.1748 224.233 50.5249 226.818 49.4083C229.403 48.2916 232.194 47.7333 235.01 47.77C241.477 47.77 246.443 50.1567 249.91 54.93L249.92 48.88ZM226.84 79.93C229.426 82.4189 232.876 83.8093 236.465 83.8093C240.054 83.8093 243.504 82.4189 246.09 79.93C247.354 78.648 248.345 77.1231 249.004 75.4473C249.662 73.7715 249.974 71.9797 249.92 70.18C249.974 68.3788 249.662 66.5854 249.004 64.908C248.346 63.2305 247.355 61.7038 246.09 60.42C243.502 57.9357 240.053 56.5484 236.465 56.5484C232.877 56.5484 229.428 57.9357 226.84 60.42C225.574 61.7028 224.582 63.2293 223.924 64.907C223.265 66.5847 222.954 68.3786 223.01 70.18C222.955 71.9799 223.265 73.7722 223.924 75.4483C224.582 77.1243 225.574 78.6491 226.84 79.93V79.93Z" fill="white"/>
<path d="M297.37 47.77C300.186 47.7333 302.977 48.2916 305.562 49.4083C308.147 50.5249 310.467 52.1748 312.37 54.25C314.412 56.3596 316.014 58.8546 317.082 61.5896C318.15 64.3246 318.662 67.2448 318.59 70.18C318.653 73.1065 318.136 76.0165 317.068 78.742C316.001 81.4676 314.404 83.9547 312.37 86.06C310.47 88.1424 308.152 89.7998 305.567 90.9234C302.982 92.0471 300.189 92.6116 297.37 92.58C290.89 92.58 285.92 90.1667 282.46 85.34V91.47H273.26V31.84H282.46V54.93C285.92 50.1567 290.89 47.77 297.37 47.77ZM286.29 79.93C288.876 82.4189 292.326 83.8093 295.915 83.8093C299.504 83.8093 302.954 82.4189 305.54 79.93C306.807 78.6499 307.801 77.1255 308.462 75.4494C309.122 73.7734 309.434 71.9806 309.38 70.18C309.434 68.3779 309.122 66.5836 308.462 64.9058C307.802 63.2281 306.808 61.7019 305.54 60.42C302.952 57.9357 299.503 56.5484 295.915 56.5484C292.327 56.5484 288.878 57.9357 286.29 60.42C285.026 61.7038 284.034 63.2305 283.376 64.908C282.718 66.5854 282.406 68.3788 282.46 70.18C282.406 71.9797 282.718 73.7715 283.376 75.4473C284.035 77.1231 285.026 78.648 286.29 79.93Z" fill="white"/>
<path d="M364.06 48.88H373.26V91.47H364.06V85.34C360.6 90.1733 355.633 92.5867 349.16 92.58C346.341 92.6116 343.548 92.0471 340.963 90.9234C338.378 89.7998 336.06 88.1424 334.16 86.06C332.128 83.9543 330.532 81.4668 329.467 78.7412C328.401 76.0156 327.885 73.1059 327.95 70.18C327.876 67.2454 328.387 64.3255 329.453 61.5904C330.519 58.8554 332.119 56.3601 334.16 54.25C336.063 52.1748 338.383 50.5249 340.968 49.4083C343.553 48.2916 346.344 47.7333 349.16 47.77C355.633 47.77 360.6 50.1567 364.06 54.93V48.88ZM341.01 79.93C343.596 82.4189 347.046 83.8093 350.635 83.8093C354.224 83.8093 357.674 82.4189 360.26 79.93C361.526 78.6494 362.519 77.1247 363.177 75.4486C363.835 73.7725 364.146 71.9799 364.09 70.18C364.146 68.3785 363.836 66.5844 363.177 64.9067C362.519 63.2289 361.526 61.7024 360.26 60.42C357.672 57.9357 354.223 56.5484 350.635 56.5484C347.047 56.5484 343.598 57.9357 341.01 60.42C339.744 61.7024 338.751 63.2289 338.093 64.9067C337.434 66.5844 337.124 68.3785 337.18 70.18C337.124 71.9799 337.435 73.7725 338.093 75.4486C338.751 77.1247 339.744 78.6494 341.01 79.93V79.93Z" fill="white"/>
<path d="M422.92 41.21H397.79V57.91H422.07V67.28H397.79V91.47H388.01V31.84H422.93L422.92 41.21Z" fill="white"/>
<path d="M443.66 40.75C442.839 41.5632 441.796 42.1159 440.661 42.3387C439.527 42.5615 438.353 42.4445 437.285 42.0023C436.217 41.5602 435.303 40.8126 434.658 39.8534C434.013 38.8941 433.666 37.7658 433.66 36.61C433.651 35.8426 433.797 35.0812 434.089 34.3716C434.381 33.6619 434.813 33.0185 435.36 32.48C435.907 31.9288 436.557 31.4913 437.274 31.1928C437.99 30.8942 438.759 30.7405 439.535 30.7405C440.311 30.7405 441.08 30.8942 441.796 31.1928C442.513 31.4913 443.163 31.9288 443.71 32.48C444.255 33.0199 444.686 33.6635 444.978 34.3729C445.27 35.0822 445.417 35.8429 445.41 36.61C445.417 37.383 445.265 38.1491 444.964 38.8612C444.663 39.5732 444.219 40.216 443.66 40.75V40.75ZM434.93 91.47V48.88H444.13V91.47H434.93Z" fill="white"/>
<path d="M75.83 62.59C78.1386 62.59 80.01 60.7186 80.01 58.41C80.01 56.1014 78.1386 54.23 75.83 54.23C73.5215 54.23 71.65 56.1014 71.65 58.41C71.65 60.7186 73.5215 62.59 75.83 62.59Z" fill="#08AE70"/>
<path d="M63.84 7.83403e-07C51.2132 9.38312e-07 38.87 3.7444 28.3714 10.7597C17.8727 17.7749 9.69021 27.746 4.8586 39.4118C0.026998 51.0776 -1.23666 63.9142 1.22743 76.2982C3.69152 88.6823 9.77268 100.057 18.7019 108.985C27.6311 117.913 39.0072 123.992 51.3916 126.455C63.776 128.917 76.6124 127.651 88.2775 122.818C99.9425 117.984 109.912 109.8 116.926 99.3003C123.94 88.8006 127.682 76.4568 127.68 63.83C127.68 55.4469 126.029 47.1459 122.82 39.401C119.612 31.6561 114.909 24.6191 108.981 18.6918C103.053 12.7645 96.0151 8.06307 88.2698 4.8559C80.5244 1.64873 72.2231 -0.00131257 63.84 7.83403e-07V7.83403e-07ZM93.01 83.5C93.01 86.0938 91.9796 88.5814 90.1455 90.4155C88.3114 92.2496 85.8238 93.28 83.23 93.28H44.23C41.6362 93.28 39.1486 92.2496 37.3145 90.4155C35.4804 88.5814 34.45 86.0938 34.45 83.5V54.28C34.4434 52.7147 34.8133 51.1707 35.5286 49.7784C36.2439 48.386 37.2836 47.1862 38.56 46.28L57.48 32.85C59.1044 31.6951 61.0432 31.0646 63.0362 31.0431C65.0292 31.0217 66.9811 31.6103 68.63 32.73L88.72 46.33C90.0418 47.2276 91.1237 48.435 91.8715 49.8469C92.6193 51.2588 93.0102 52.8323 93.01 54.43V83.5Z" fill="#08AE70"/>
<path d="M63.74 81.51C61.871 81.5102 60.0289 81.0648 58.3663 80.2109C56.7038 79.3571 55.2687 78.1192 54.18 76.6H47.57C48.9166 79.7735 51.1675 82.4804 54.042 84.3833C56.9166 86.2863 60.2877 87.301 63.735 87.301C67.1824 87.301 70.5535 86.2863 73.4281 84.3833C76.3026 82.4804 78.5535 79.7735 79.9 76.6H73.29C72.2041 78.1196 70.771 79.358 69.1099 80.212C67.4488 81.066 65.6078 81.511 63.74 81.51V81.51Z" fill="#08AE70"/>
<path d="M51.45 62.51C52.2767 62.51 53.0849 62.2648 53.7723 61.8055C54.4597 61.3462 54.9955 60.6934 55.3118 59.9296C55.6282 59.1658 55.711 58.3254 55.5497 57.5145C55.3884 56.7037 54.9903 55.9589 54.4057 55.3743C53.8211 54.7897 53.0763 54.3916 52.2655 54.2303C51.4547 54.069 50.6142 54.1518 49.8504 54.4682C49.0866 54.7846 48.4338 55.3203 47.9745 56.0077C47.5152 56.6951 47.27 57.5033 47.27 58.33C47.27 59.4386 47.7104 60.5018 48.4943 61.2857C49.2782 62.0696 50.3414 62.51 51.45 62.51V62.51Z" fill="#08AE70"/>
</svg>
